<?xml version="1.0" encoding="UTF-8" standalone="no"?>
<!DOCTYPE svg PUBLIC "-//W3C//DTD SVG 1.1//EN" "http://www.w3.org/Graphics/SVG/1.1/DTD/svg11.dtd">
<svg width="100%" height="100%" viewBox="0 0 3000 3000" version="1.1" xmlns="http://www.w3.org/2000/svg" xmlns:xlink="http://www.w3.org/1999/xlink" xml:space="preserve" xmlns:serif="http://www.serif.com/" style="fill-rule:evenodd;clip-rule:evenodd;stroke-linejoin:round;stroke-miterlimit:2;">
    <g id="Fundo" transform="matrix(4.523511,0,0,4.523511,-868.064713,127.827379)">
        <g transform="matrix(1.015754,0,0,1.065595,-16.134908,-41.991775)">
            <path d="M1018.5,639.999L0,639.999C-0.429,639.742 0,639 0,638.5L0,0C0.226,-0.377 0.374,0 5.5,0L1023.999,0C1024.376,0.226 1023.999,0.374 1023.999,5.5L1023.999,639.999C1023.773,640.376 1023.625,639.999 1018.5,639.999Z"/>
        </g>
        <path d="M436.5,177.906C342.62,177.906 342.633,177.904 342.545,177.924C340.777,178.312 340.808,178.683 340.791,180.504C340.576,204.462 340.769,281.698 340.791,290.498C340.801,294.491 342.511,293.596 346.5,293.596C515.295,293.596 515.292,293.601 515.51,293.561C517.386,293.215 517.086,292.403 517.086,279.5C517.086,166.932 517.065,166.918 517.265,166.387C517.723,165.169 518.17,165.364 531.5,165.364C604.642,165.364 604.644,165.331 609.494,165.631C620.21,166.295 622.16,166.003 628.414,167.814C628.724,167.903 645.634,171.069 661.14,186.85C674.931,200.885 677.914,214.318 679.556,219.481C681.002,224.026 682.724,241.95 679.188,253.402C677.791,257.928 678.089,258.015 676.247,262.394C674.974,265.421 672.361,272.58 663.072,283.098C661.457,284.927 655.089,290.424 654.167,291.05C647.086,295.854 643.007,298.566 627.403,303.172C623.378,304.36 621.428,304.152 621.018,305.291C620.63,306.37 621.797,308.088 622.124,308.696C622.27,308.967 641.531,345.843 644.093,350.703C645.478,353.33 656.708,374.633 661.269,383.62C662.292,385.634 662.453,385.525 663.355,387.569C663.837,388.66 678.113,415.593 680.917,421.294C681.201,421.872 683.049,425.629 684.737,428.373C687.392,432.688 683.385,431.824 680.5,431.821C676.416,431.817 674.354,432.153 673.385,430.578C672.506,429.148 670.285,424.557 669.19,422.674C668.826,422.049 665.161,414.919 664.016,412.742C654.881,395.361 637.282,361.441 627.313,342.603C622.6,333.699 622.792,333.625 618.064,324.745C608.38,306.558 608.581,306.199 607.373,305.81C606.577,305.554 606.557,305.594 533.5,305.593C530.599,305.593 529.612,305.434 529.593,308.501C529.533,318.194 529.723,429.595 529.485,430.496C529.165,431.714 527.728,431.807 527.54,431.819C525.446,431.955 520.129,431.838 519.484,431.824C516.463,431.757 517.09,430.526 517.086,427.5C517.082,424.585 517.096,307.639 517.078,307.53C516.674,305.03 514.377,305.591 512.5,305.591C339.015,305.562 338.996,305.69 337.51,305.427C336.12,305.18 332.272,304.76 329.84,300.315C328.683,298.201 328.831,298.068 328.831,270.5C328.831,49.477 328.816,49.493 328.957,48.57C329.556,44.635 333.185,40.88 336.417,40.196C338.734,39.706 338.749,39.761 402.5,39.761C464.282,39.761 464.287,39.755 464.443,39.807C466.064,40.342 465.958,41.011 465.906,48.508C465.887,51.178 465.174,51.248 462.499,51.248C406.125,51.26 342.864,51.211 342.462,51.286C340.479,51.657 340.791,52.484 340.791,65.5C340.791,164.326 340.787,164.328 340.823,164.453C341.331,166.191 341.693,166.112 343.507,166.124C356.336,166.216 439.496,165.917 440.59,166.301C441.984,166.791 441.689,169.253 441.687,173.5C441.687,173.805 441.685,176.764 441.253,177.29C440.57,178.12 437.531,177.903 436.5,177.906ZM670.053,236.509C669.79,232.649 669.625,211.367 653.28,194.715C635.605,176.709 615.805,177.586 609.5,177.586C530.25,177.585 530.217,177.558 529.673,177.834C528.56,178.399 528.793,180.253 528.793,186.5C528.793,292.344 528.79,292.345 528.82,292.455C529.171,293.75 529.223,293.907 530.54,294.115C532.116,294.365 609.624,294.151 616.5,294.132C617.74,294.129 624.046,294.112 631.648,290.842C641.743,286.499 646.621,282.359 649.709,279.757C651.196,278.504 659.23,271.734 664.603,260.555C670.174,248.966 670.045,236.632 670.053,236.509Z" style="fill:rgb(253,254,254);"/>
        <path d="M485.5,38.953C487.731,39.031 487.731,39.023 585.5,39.023C705.213,39.023 705.247,38.985 706.547,39.336C715.394,41.724 716.27,48.774 716.611,51.488C716.756,52.65 716.741,52.658 716.741,437.5C716.741,439.758 718.318,453.513 707.534,454.783C706.021,454.962 339.16,454.881 338.473,454.825C331.592,454.266 329.308,447.95 328.988,446.404C328.84,445.689 328.857,445.688 328.857,363.5C328.857,342.158 328.773,342.008 329.385,341.388C329.909,340.856 330.069,340.784 339.497,340.826C339.931,340.828 342.076,340.505 342.372,342.52C342.449,343.046 342.37,438.65 342.415,439.507C342.496,441.068 343.194,441.511 344.487,441.635C344.873,441.672 670.179,441.649 698.5,441.647C700.33,441.647 702.72,442.253 703.061,439.476C703.102,439.141 703.007,88.058 702.999,57.5C702.998,54.208 703.79,52.806 700.494,52.737C700.385,52.735 497.552,52.736 497.504,52.737C495.696,52.757 495.314,52.745 494.988,54.537C494.963,54.672 494.99,176.06 494.973,176.521C494.883,179.086 494.071,178.931 491.5,178.931C481.193,178.928 480.19,179.04 479.571,178.426C478.957,177.816 479.054,174.817 479.064,174.5L479.064,73.5C479.064,40.153 479.001,40.016 479.514,39.515C480.283,38.763 483.156,38.956 485.5,38.953Z" style="fill:rgb(29,61,0);"/>
        <g>
            <g transform="matrix(1,0,0,1,0,0.884269)">
                <path d="M274.53,524.041C280.044,524.873 291.495,527.482 289.281,544.469C288.623,549.516 284.677,554.249 278.583,555.79C274.218,556.894 274.218,557.079 266.5,557.08C250.665,557.084 250.392,557.203 249.805,556.3C249.459,555.768 249.459,555.71 249.467,528.5C249.467,527.032 248.87,523.964 251.525,523.871C251.783,523.862 270.669,523.856 271.49,523.875C273.132,523.913 273.111,523.963 274.53,524.041ZM281.025,543.397C281.053,543.16 282.261,537.743 279.848,534.275C276.86,529.979 274.461,530.269 260.498,530.323C256.769,530.338 257.337,531.786 257.337,535.5C257.336,548.818 257.283,548.863 257.618,549.437C258.139,550.328 258.357,550.531 270.495,550.315C279.852,550.148 280.998,543.463 281.025,543.397Z" style="fill:rgb(254,254,254);"/>
            </g>
            <path d="M309.947,551.5C310.052,556.337 310.328,557.644 307.506,557.692C303.693,557.756 302.226,557.978 302.016,555.555C301.843,553.558 301.932,529.748 301.941,527.504C301.953,524.236 303.224,524.736 306.5,524.735C333.72,524.728 333.88,524.626 335.413,525.644C338.559,527.734 337.834,529.625 338.058,538.496C338.293,547.831 329.455,544.751 328.553,545.573C327.513,546.521 329.147,547.601 329.298,547.7C333.312,550.352 332.956,550.785 337.181,553.907C337.27,553.973 337.242,553.965 338.272,554.768C339.432,555.67 340.376,556.194 340.438,556.526C340.695,557.88 338.733,557.836 338.549,557.831C330.294,557.644 330.245,557.616 329.622,557.264C328.79,556.793 320.826,549.407 320.702,549.288C317.353,546.068 317.365,545.422 312.502,545.569C309.788,545.652 310.055,546.677 309.947,551.5ZM309.949,535.499C310.204,538.402 309.58,539.575 312.495,539.645C313.695,539.674 324.935,539.946 327.503,539.52C329.551,539.181 330.717,538.477 330.547,534.499C330.355,529.986 328.325,530.662 318.5,530.662C313.107,530.662 310.81,530.465 310.348,531.39C310.2,531.686 310.064,531.96 309.949,535.499Z" style="fill:rgb(254,254,254);"/>
            <path d="M773.083,540.451C772.716,541.806 772.665,545.003 767.494,545.434C766.842,545.489 763.897,545.275 763.573,545.59C762.6,546.539 764.203,547.557 764.352,547.652C766.711,549.152 766.563,549.336 771.602,553.371C773.165,554.622 775.471,556.14 775.542,556.483C775.568,556.61 775.769,557.588 774.641,557.828C774.082,557.947 774.079,557.752 767.499,557.691C764.106,557.66 764.041,556.56 761.06,553.987C757.278,550.721 757.403,550.611 753.696,547.277C751.836,545.605 751.039,545.489 747.503,545.567C744.544,545.633 745.128,547.167 745.116,554.498C745.113,557.021 745.012,557.658 742.504,557.691C739.751,557.728 737.374,558.145 737.227,555.525C737.204,555.118 737.215,530.662 737.216,528.5C737.217,526.84 736.867,524.812 739.513,524.739C739.632,524.735 764.536,524.728 765.496,524.74C767.17,524.762 771.678,524.616 772.792,528.404C773.063,529.329 773.431,530.58 773.083,540.451ZM745.116,535.5C745.275,538.368 744.61,539.53 747.493,539.649C749.185,539.719 758.54,539.658 759.5,539.652C762.86,539.63 766.041,540.066 765.783,534.491C765.574,529.987 763.275,530.662 753.5,530.662C747.071,530.662 745.452,530.22 745.139,532.444L745.116,535.5Z" style="fill:rgb(254,254,254);"/>
            <path d="M516.966,543.5L516.966,547.5C516.966,547.795 517.649,555.268 513.697,556.921C511.575,557.809 511.488,557.695 488.5,557.69C480.874,557.689 477.883,557.72 477.801,549.495C477.602,529.63 477.777,529.116 478.344,527.445C478.948,525.666 481.106,524.357 482.431,524.143C482.71,524.098 482.7,523.818 506.5,523.864C511.529,523.874 515.519,523.561 516.754,529.441C517.601,533.476 515.542,532.749 511.539,533.668C508.099,534.458 509.355,531.678 508.28,530.742C507.661,530.203 507.548,530.256 490.5,530.261C488.857,530.261 485.842,529.639 485.749,532.514C485.61,536.79 485.724,547.217 485.738,548.495C485.755,550.072 485.864,550.993 488.505,551.081C488.522,551.081 506.419,551.081 506.488,551.08C509.244,551.041 508.976,548.927 508.879,546.473C508.764,543.535 506.075,544.165 504.5,544.163C503.167,544.163 501.833,544.162 500.5,544.162C497.843,544.159 496.07,544.832 496.249,540.487C496.369,537.576 497.666,538.09 505.5,538.09C515.659,538.09 516.479,537.825 516.883,539.374C516.961,539.673 516.966,543.17 516.966,543.5Z" style="fill:rgb(254,254,254);"/>
            <g transform="matrix(1,0,0,1,0,0.442134)">
                <path d="M617.966,528.5L617.966,551.5C617.966,553.794 618.565,556.458 616.65,556.995C613.594,557.852 611.486,556.232 611.13,555.958C607.407,553.097 607.596,552.886 603.856,550.061C602.787,549.254 597.95,545.013 597.442,544.567C593.698,541.285 591.384,539.499 590.84,539.079C589.621,538.139 588.576,536.518 587.504,536.534C586.702,536.546 586.682,536.738 586.657,537.535C586.616,538.892 587.018,538.867 586.782,554.508C586.748,556.716 586.168,557.374 581.525,557.128C578.956,556.992 579.402,555.437 579.402,547.5C579.402,525.261 579.356,525.203 579.707,524.619C580.156,523.87 581.361,523.804 581.52,523.795C586.271,523.534 586.217,525.519 590.516,528.48C590.664,528.582 597.805,534.656 601.411,537.611C604.674,540.285 604.669,540.262 607.884,543.011C608.426,543.474 608.899,544.05 609.537,544.368C610.815,545.005 610.846,542.728 610.848,542.549C610.866,541.265 610.679,541.271 610.783,526.503C610.807,523.156 612.15,523.746 615.494,523.792C618.765,523.836 617.965,525.245 617.966,528.5Z" style="fill:rgb(254,254,254);"/>
            </g>
            <g transform="matrix(1,0,0,1,0,0.663202)">
                <path d="M430.966,541.5C430.966,548.65 430.95,548.637 431.035,553.5C431.04,553.747 431.079,555.967 430.561,556.552C430.175,556.988 424.133,558.28 423.788,555.46C423.738,555.054 423.752,525.797 423.78,525.532C424.071,522.781 428.644,523.626 430.278,524.803C430.642,525.065 430.536,525.186 434.597,528.371C437.704,530.809 443.112,535.462 443.842,536.091C447.36,539.118 450.921,541.944 451.546,542.441C452.566,543.25 453.417,544.239 454.307,544.081C455.145,543.931 454.745,543.472 454.867,526.503C454.891,523.21 456.188,523.756 459.495,523.788C461.774,523.811 462.019,524.237 462.094,526.504C462.095,526.528 462.095,553.453 462.095,553.499C462.079,555.671 462.613,557.255 458.51,557.129C455.852,557.047 454.654,555.506 443.241,545.81C437.217,540.692 437.187,540.744 436.664,540.299C436.122,539.838 436.133,539.866 435.58,539.403C434.496,538.496 434.442,538.588 433.45,537.561C432.642,536.724 432.687,536.468 431.531,536.563C430.734,536.628 431.057,536.952 431.052,537.227C431.03,538.363 430.956,538.348 431.022,539.487C431.032,539.647 431.018,539.636 430.966,541.5Z" style="fill:rgb(254,254,254);"/>
            </g>
            <g transform="matrix(1,0,0,1,0,0.221067)">
                <path d="M834.216,529.673C847.481,552.792 849.225,555.517 849.162,556.421C849.107,557.215 847.626,557.191 847.478,557.189C841.463,557.09 840.905,557.396 839.321,554.606C837.594,551.564 837.625,550.037 834.494,549.913C834.358,549.908 819.678,549.91 819.502,549.911C815.803,549.941 816.198,551.191 814.234,554.346C812.898,556.49 813.016,557.015 810.493,557.131C805.579,557.355 805.485,556.956 805.391,556.557C805.065,555.168 806.743,553.395 810.891,545.699C811.365,544.818 811.463,544.887 816.955,534.768C817.111,534.48 817.17,534.519 819.048,531.25C822.409,525.397 822.395,523.883 825.507,523.794C829.758,523.672 830.938,523.648 832.468,526.519C833.611,528.663 833.641,528.624 834.216,529.673ZM829.675,536.396C828.454,534.481 827.98,533.041 827.617,532.38C827.297,531.799 827.195,531.866 826.546,531.894C825.904,531.922 825.868,531.962 825.61,532.576C824.404,535.436 822.747,538.508 821.643,540.57C819.887,543.85 822.805,543.478 823.501,543.469C828.979,543.401 831.755,543.637 832.27,543.198C833.184,542.42 832.141,541.28 829.675,536.396Z" style="fill:rgb(253,254,254);"/>
            </g>
            <g transform="matrix(1,0,0,1,0,0.663202)">
                <path d="M686.864,548.716C687.284,548.018 687.276,548.026 691.09,541.273C691.759,540.089 698.941,527.371 699.424,526.455C700.705,524.025 701.011,523.593 706.49,523.798C706.715,523.806 708.365,523.868 709.122,524.8C709.254,524.962 725.625,553.682 726.256,554.638C726.364,554.801 727.505,556.531 726.322,557.087C725.765,557.349 725.739,557.174 723.499,557.138C720.89,557.095 718.655,557.586 717.533,555.481C714.791,550.332 714.577,549.928 711.499,549.91C695.717,549.819 695.653,549.787 694.437,550.408C693.382,550.946 691.786,555.316 690.452,556.444C690.088,556.753 689.458,557.285 684.534,557.172C684.427,557.169 683.461,557.147 683.301,556.658C682.798,555.128 683.41,555.152 686.864,548.716ZM706.774,535.338C705.134,532.209 705.356,532.072 705.109,531.89C705.094,531.879 703.775,531.83 703.755,531.84C703.605,531.915 700.364,538.694 700.077,539.294C699.523,540.453 696.875,543.475 700.501,543.488C701.141,543.49 707.817,543.515 708.499,543.491C709.675,543.449 709.982,543.624 710.266,542.471C710.408,541.897 707.194,536.153 706.774,535.338Z" style="fill:rgb(254,254,254);"/>
            </g>
            <path d="M228.5,551.034C231.005,551.034 230.985,551.04 233.495,550.964C236.152,550.885 235.936,551.837 236.02,554.498C236.028,554.728 236.09,556.696 235.332,557.293C234.754,557.749 234.657,557.692 209.5,557.692C204.805,557.692 202.606,557.944 202.108,556.729C201.774,555.914 201.825,555.876 201.825,529.5C201.825,528.048 201.638,525.99 202.296,525.317C202.959,524.64 203.114,524.735 220.5,524.735C234.519,524.735 234.747,524.595 235.501,525.5C235.727,525.772 236.534,530.156 234.597,530.76C233.675,531.048 211.996,530.803 211.547,530.913C209.793,531.34 209.857,531.717 209.847,533.506C209.846,533.763 209.833,536.235 210.232,536.696C211.066,537.656 211.321,537.461 220.5,537.466C220.801,537.467 223.71,537.468 224.248,537.851C225.055,538.425 225.757,542.887 223.462,543.317C222.048,543.581 211.736,543.008 210.64,543.728C209.897,544.215 209.858,545.365 209.852,545.522C209.721,549.396 209.866,550.635 211.408,550.929C212.138,551.068 222.602,550.831 228.5,551.034Z" style="fill:rgb(254,254,254);"/>
            <path d="M558.5,551.034C561.002,551.034 560.982,551.04 563.495,550.964C566.153,550.884 565.929,551.842 566.013,554.498C566.02,554.728 566.082,556.695 565.331,557.292C564.755,557.749 564.658,557.692 539.5,557.692C534.792,557.692 532.598,557.942 532.1,556.738C531.759,555.914 531.81,555.875 531.81,529.5C531.81,528.072 531.62,525.995 532.291,525.308C532.939,524.645 533.093,524.735 552.5,524.735C564.288,524.735 564.714,524.581 565.482,525.511C565.723,525.804 566.493,530.144 564.597,530.751C563.646,531.056 542.013,530.802 541.544,530.91C539.778,531.314 539.811,531.682 539.801,533.506C539.8,533.765 539.786,536.234 540.214,536.721C541.036,537.658 541.408,537.459 550.5,537.466C550.799,537.467 553.679,537.469 554.221,537.873C554.98,538.438 555.665,542.862 553.456,543.306C552.067,543.585 541.719,543.021 540.623,543.71C539.858,544.191 539.814,545.362 539.808,545.521C539.653,549.606 539.896,550.668 541.413,550.934C542.157,551.064 552.649,550.832 558.5,551.034Z" style="fill:rgb(254,254,254);"/>
            <path d="M404.5,551.034C408.987,550.931 410.569,550.721 410.919,552.407C410.952,552.565 411.006,554.33 411.011,554.497C411.018,554.727 411.078,556.691 410.328,557.29C409.679,557.809 409.56,557.676 380.5,557.693C378.514,557.694 377.884,557.83 377.097,556.74C376.776,556.297 376.801,556.235 376.805,529.5C376.805,528.088 376.615,526.001 377.292,525.308C377.937,524.646 378.091,524.735 397.5,524.735C409.032,524.735 409.829,524.572 410.473,525.516C410.738,525.904 411.444,530.144 409.598,530.747C408.643,531.059 387.26,530.803 386.542,530.911C385.23,531.109 385.168,531.254 384.8,532.542C384.763,532.672 384.726,535.785 384.915,536.353C385.275,537.438 387.276,537.462 387.501,537.465C395.246,537.558 399.04,536.99 399.629,538.433C399.63,538.434 400.738,542.821 398.452,543.299C397.07,543.589 386.719,543.027 385.615,543.702C384.834,544.179 384.786,545.36 384.78,545.519C384.61,549.749 384.923,550.689 386.417,550.937C387.416,551.103 394.071,550.794 404.5,551.034Z" style="fill:rgb(254,254,254);"/>
            <g transform="matrix(1,0,0,1,0,0.442134)">
                <path d="M641.96,552.5C642.072,555.714 642.718,556.998 639.493,557.136C635.289,557.317 634.783,556.786 634.506,556.495C634.023,555.988 634.094,555.863 634.089,527.5C634.089,524.786 633.804,523.838 636.511,523.789C638.266,523.758 640.913,523.65 641.617,524.41C642.535,525.399 641.206,535.109 642.635,536.335C643.29,536.896 643.411,536.801 659.5,536.805C662.528,536.806 664.825,537.348 664.966,534.543C665.08,532.27 664.665,525.207 665.387,524.413C666.176,523.545 666.317,523.798 667.506,523.787C671.385,523.748 672.898,523.369 672.933,526.491C672.934,526.535 672.934,554.436 672.932,554.514C672.865,557.453 671.443,557.186 667.507,557.136C664.287,557.094 665.043,555.726 665.043,552.5C665.042,545.173 665.596,543.469 662.504,543.385C662.109,543.374 644.73,543.376 644.496,543.385C641.339,543.512 642.214,544.988 641.96,552.5Z" style="fill:rgb(254,254,254);"/>
            </g>
            <path d="M787.809,534.5C787.809,529.922 787.806,526.718 787.823,526.532C788.001,524.525 789.721,524.742 790.503,524.734C793.032,524.709 795.466,524.353 795.784,526.459C795.819,526.69 795.797,555.465 795.795,555.525C795.67,558.177 793.39,557.722 790.497,557.687C788.863,557.667 788.518,557.905 787.894,556.397C787.796,556.158 787.809,556.16 787.809,534.5Z" style="fill:rgb(254,254,254);"/>
        </g>
    </g>
</svg>
